<svg aria-hidden="true" style="position: absolute; width: 0; height: 0; overflow: hidden;" version="1.1" xmlns="http://www.w3.org/2000/svg" xmlns:xlink="http://www.w3.org/1999/xlink">
<defs>
<symbol id="icon-freshnesecom" viewBox="0 0 315 32">
<path d="M6.884 19.129h11.614v-6.258h-11.614v-6.612h14.196v-6.26h-21.079v31.305h6.884v-12.176zM23.436 19.564v11.74h6.453v-11.74c0-3.609 2.882-6.521 6.453-6.521v-5.913h-0.86c-7.141 0-12.046 5.564-12.046 12.434zM50.768 7.129c-7.14 0-12.905 5.566-12.905 12.436 0 6.871 5.765 12.436 12.907 12.436 5.678 0 10.496-3.522 12.217-8.436h-7.141c-1.178 1.536-3.013 2.518-5.077 2.523h-0.001c-2.795 0-5.12-1.783-6.066-4.261h18.756c0.132-0.74 0.217-1.477 0.217-2.261 0-6.869-5.765-12.434-12.907-12.434zM44.702 17.305c0.948-2.478 3.271-4.261 6.066-4.261 2.756 0 5.12 1.783 6.066 4.261h-12.132zM77.769 17.479c-2.494-0.306-5.333-1.392-5.333-2.784 0-1.564 1.333-2.087 2.752-2.087 1.42 0 2.756 0.523 2.756 2.523h6.452c0-5.044-4.217-8-9.207-8s-9.205 2.956-9.205 7.739c0 3.696 4.345 6.478 8.862 7.044 1.936 0.261 3.355 1.262 3.355 2.347 0 1.524-1.591 2.261-3.012 2.261-1.419 0-3.012-0.521-3.012-2.521h-6.453c0 5.044 4.475 8 9.465 8s9.465-2.956 9.465-8c0-3.957-3.484-6.13-6.884-6.521zM100.057 7.129c-2.151 0-4.087 0.784-5.593 2.089v-9.218h-6.453v31.305h6.453v-11.785c0-3.564 2.023-6.478 5.593-6.478 3.572 0 5.593 2.914 5.593 6.521v11.74h6.453v-11.74c0-6.869-4.905-12.434-12.046-12.434zM128.030 7.129c-7.14 0-12.044 5.566-12.044 12.436v11.74h6.453v-11.74c0-3.609 2.021-6.521 5.591-6.521 3.572 0 5.593 2.914 5.593 6.521v11.74h6.453v-11.74c0-6.869-4.905-12.434-12.046-12.434zM155.796 7.129c-7.141 0-12.907 5.566-12.907 12.436 0 6.871 5.765 12.436 12.907 12.436 5.678 0 10.496-3.522 12.217-8.436h-7.141c-1.177 1.536-3.011 2.518-5.075 2.523h-0.001c-2.796 0-5.12-1.783-6.066-4.261h18.756c0.13-0.74 0.215-1.477 0.215-2.261 0-6.869-5.765-12.434-12.907-12.434zM149.73 17.305c0.946-2.478 3.269-4.261 6.066-4.261 2.752 0 5.12 1.783 6.066 4.261h-12.132zM182.795 17.479c-2.494-0.306-5.333-1.392-5.333-2.784 0-1.564 1.333-2.087 2.754-2.087 1.419 0 2.752 0.523 2.752 2.523h6.453c0-5.044-4.215-8-9.205-8s-9.207 2.956-9.207 7.739c0 3.696 4.345 6.478 8.862 7.044 1.936 0.261 3.355 1.262 3.355 2.347 0 1.524-1.591 2.261-3.010 2.261-1.42 0-3.012-0.521-3.012-2.521h-6.453c0 5.044 4.475 8 9.465 8s9.463-2.956 9.463-8c0-3.957-3.484-6.13-6.884-6.521zM204.652 7.129c-7.141 0-12.905 5.566-12.905 12.436 0 6.871 5.764 12.436 12.905 12.436 5.678 0 10.498-3.522 12.219-8.436h-7.141c-1.178 1.536-3.013 2.518-5.077 2.523h-0.001c-2.796 0-5.118-1.783-6.066-4.261h18.757c0.128-0.74 0.215-1.477 0.215-2.261 0-6.869-5.765-12.434-12.907-12.434zM198.587 17.305c0.948-2.478 3.269-4.261 6.066-4.261 2.754 0 5.12 1.783 6.066 4.261h-12.132zM232.171 13.044c2.494 0 4.603 1.392 5.721 3.477h6.796c-1.419-5.39-6.496-9.39-12.517-9.39-7.141 0-12.907 5.564-12.907 12.434 0 6.871 5.765 12.436 12.907 12.436 5.979 0 10.969-3.913 12.432-9.218h-6.926c-1.076 1.956-3.097 3.305-5.506 3.305-3.572 0-6.453-2.914-6.453-6.523s2.882-6.521 6.453-6.521zM271.874 19.564c0-6.869-5.721-12.434-12.82-12.434-7.097 0-12.82 5.564-12.82 12.434 0 6.871 5.723 12.436 12.82 12.436 7.099 0 12.82-5.564 12.82-12.436zM265.422 19.564c0 3.609-2.841 6.523-6.368 6.523s-6.366-2.914-6.366-6.523c0-3.609 2.839-6.521 6.366-6.521s6.368 2.914 6.368 6.521zM303.052 7.129c-0.001 0-0.002 0-0.003 0-3.369 0-6.379 1.533-8.372 3.939l-0.015 0.018c-2.008-2.423-5.018-3.956-8.385-3.956-0.001 0-0.003 0-0.004 0h0c-7.141 0-11.614 5.564-11.614 12.434v11.74h6.453v-11.74c0-3.609 1.591-6.521 5.161-6.521 3.572 0 5.163 2.914 5.163 6.521v11.74h6.453v-11.74c0-3.609 1.591-6.521 5.163-6.521 3.57 0 5.161 2.914 5.161 6.521v11.74h6.453v-11.74c0-6.869-4.475-12.434-11.614-12.434z"></path>
</symbol>
<symbol id="icon-user" viewBox="0 0 32 32">
<path stroke-linejoin="round" stroke-linecap="round" stroke-miterlimit="4" stroke-width="3.3333" d="M4 29.333l1.053-3.84c3.48-12.667 18.413-12.667 21.893 0l1.053 3.84"></path>
<path stroke-linejoin="bevel" stroke-linecap="round" stroke-miterlimit="4" stroke-width="3.3333" d="M16 15.973c3.682 0 6.667-2.985 6.667-6.667s-2.985-6.667-6.667-6.667v0c-3.682 0-6.667 2.985-6.667 6.667s2.985 6.667 6.667 6.667v0z"></path>
</symbol>
<symbol id="icon-shopping-bag" viewBox="0 0 35 32">
<path stroke-linejoin="round" stroke-linecap="round" stroke-miterlimit="4" stroke-width="3.6364" d="M26.022 28.873h-17.135c-0.001 0-0.001 0-0.002 0-0.965 0-1.776-0.662-2.002-1.557l-0.003-0.014-3.855-15.433c-0.019-0.074-0.030-0.159-0.030-0.247 0-0.562 0.456-1.018 1.018-1.018 0 0 0.001 0 0.001 0h26.88c0 0 0.001 0 0.001 0 0.562 0 1.018 0.456 1.018 1.018 0 0.088-0.011 0.173-0.032 0.254l0.002-0.007-3.855 15.433c-0.23 0.909-1.040 1.571-2.005 1.571-0.001 0-0.001 0-0.002 0h0zM14.255 3.127l-4.218 7.476M20.189 3.127l4.233 7.476"></path>
</symbol>
<symbol id="icon-search" viewBox="0 0 32 32">
<path stroke-linejoin="bevel" stroke-linecap="round" stroke-miterlimit="4" stroke-width="3" d="M18.386 22.866c0.041 0.001 0.089 0.001 0.137 0.001 5.155 0 9.334-4.179 9.334-9.334s-4.179-9.334-9.334-9.334c-0.048 0-0.096 0-0.144 0.001l0.007-0c-5.096 0.077-9.197 4.226-9.197 9.333s4.101 9.256 9.19 9.333l0.007 0zM11.626 20.48l-6.252 6.254"></path>
</symbol>
<symbol id="icon-green-arrow-down" viewBox="0 0 53 32">
<path fill="none" stroke="#6a983c" style="stroke: var(--color1, #6a983c)" stroke-linejoin="bevel" stroke-linecap="round" stroke-miterlimit="4" stroke-width="13.3333" d="M9.669 8.176l14.613 14.613c0.643 0.639 1.529 1.033 2.507 1.033s1.864-0.395 2.507-1.033l14.224-14.218"></path>
</symbol>
<symbol id="icon-black-arrow-right" viewBox="0 0 22 32">
<path stroke-linejoin="bevel" stroke-linecap="round" stroke-miterlimit="4" stroke-width="8" d="M6.506 26.198l8.768-8.768c0.383-0.386 0.62-0.917 0.62-1.504s-0.237-1.118-0.62-1.504l-8.531-8.534"></path>
</symbol>
<symbol id="icon-slide-left" viewBox="0 0 21 32">
<path d="M0 0.615h12.308c4.078 0 7.385 3.306 7.385 7.385v14.769c0 4.078-3.306 7.385-7.385 7.385h-12.308v-29.538z"></path>
<path fill="none" stroke="#fff" style="stroke: var(--color2, #fff)" stroke-linejoin="bevel" stroke-linecap="round" stroke-miterlimit="4" stroke-width="1.5385" d="M11.651 11.463l-3.372 3.372c-0.148 0.148-0.239 0.353-0.239 0.578s0.091 0.43 0.239 0.579l3.282 3.282"></path>
</symbol>
</defs>
</svg>
